
<svg xmlns="http://www.w3.org/2000/svg" width="2560" height="1440" viewBox="0 0 2560 1440">
  <defs>
    <radialGradient id="lamp" cx="74%" cy="38%" r="42%">
      <stop offset="0%" stop-color="#D99A3D" stop-opacity="0.84"/>
      <stop offset="38%" stop-color="#D99A3D" stop-opacity="0.26"/>
      <stop offset="100%" stop-color="#09090B" stop-opacity="0"/>
    </radialGradient>
    <linearGradient id="tealWash" x1="0" y1="0" x2="1" y2="1">
      <stop offset="0%" stop-color="#0C7C78" stop-opacity="0.58"/>
      <stop offset="50%" stop-color="#09090B" stop-opacity="0.96"/>
      <stop offset="100%" stop-color="#B6423A" stop-opacity="0.26"/>
    </linearGradient>
    <filter id="grain">
      <feTurbulence type="fractalNoise" baseFrequency="0.76" numOctaves="3" stitchTiles="stitch"/>
      <feColorMatrix values="0 0 0 0 1 0 0 0 0 1 0 0 0 0 1 0 0 0 0.08 0"/>
    </filter>
    <filter id="shadow" x="-30%" y="-30%" width="160%" height="160%">
      <feDropShadow dx="0" dy="28" stdDeviation="32" flood-color="#000000" flood-opacity="0.55"/>
    </filter>
  </defs>
  <rect width="2560" height="1440" fill="#09090B"/>
  <rect width="2560" height="1440" fill="url(#tealWash)"/>
  <rect width="2560" height="1440" fill="url(#lamp)"/>
  <path d="M0 1006 C390 820 704 886 1018 996 C1358 1118 1658 1100 2560 746 L2560 1440 L0 1440 Z" fill="#050506" opacity="0.66"/>
  <path d="M398 998 C676 884 1012 910 1292 1024 C1568 1136 1880 1110 2172 944" fill="none" stroke="#B6423A" stroke-width="8" opacity="0.76"/>
  <path d="M458 1050 C750 954 1038 1010 1310 1112 C1604 1222 1916 1188 2208 1042" fill="none" stroke="#D99A3D" stroke-width="3" opacity="0.54"/>
  <g filter="url(#shadow)" opacity="0.92">
    <rect x="1760" y="418" width="238" height="418" rx="16" fill="#181316"/>
    <path d="M1788 418 H1970 L1932 298 H1826 Z" fill="#D99A3D" opacity="0.92"/>
    <path d="M1844 836 H1918 L1948 1074 H1814 Z" fill="#0A0909"/>
    <ellipse cx="1881" cy="1082" rx="164" ry="30" fill="#020202" opacity="0.78"/>
  </g>
  <g opacity="0.72">
    <rect x="400" y="740" width="420" height="260" rx="18" fill="#111114" stroke="#0C7C78" stroke-width="5"/>
    <line x1="452" y1="1000" x2="372" y2="1110" stroke="#030303" stroke-width="18"/>
    <line x1="770" y1="1000" x2="850" y2="1110" stroke="#030303" stroke-width="18"/>
  </g>
  <g>
    <text x="1280" y="586" text-anchor="middle" font-family="Georgia, 'Times New Roman', serif" font-size="138" font-weight="700" font-style="italic" fill="#F5EFE6">Esto no es amor</text>
    <text x="1280" y="666" text-anchor="middle" font-family="Arial, Helvetica, sans-serif" font-size="34" font-weight="700" letter-spacing="12" fill="#D99A3D">APEGO EMOCIONAL · AMOR PROPIO · LIMITES</text>
  </g>
  <rect width="2560" height="1440" filter="url(#grain)" opacity="0.55"/>
  <rect x="662" y="551" width="1236" height="146" fill="none" stroke="#F5EFE6" stroke-opacity="0.08"/>
</svg>